# xmcd
#
# Track frame offsets:
#	150
#	3743
#	18013
#	32416
#	45924
#	56315
#	70117
#	78876
#	88673
#	100106
#	110628
#
# Disc length: 1865 seconds
#
# Revision: 1
# Processed by: cddbd v1.5.2PL0 Copyright (c) Steve Scherf et al.
# Submitted via: EasyCDDAExtractor 12.0.1.1
#
DISCID=7207470b
DTITLE=Various Artist -  Norwegian Country Fest - CD1
DYEAR=1993
DGENRE=Country
TTITLE0=Y'All Come  - Diverse artister
TTITLE1=Jeg snudde meg bort - Ottar Big Hand Johansen
TTITLE2=Mitt Barndomsparadis - Lillian Askeland
TTITLE3=Sangen om Jesse Rawlins - Helge Borglund
TTITLE4=Adios Amigo - Bjøro Håland
TTITLE5=Jeg vet - Lillian Askeland
TTITLE6=Da leker livet - Gro Anita Schønn
TTITLE7=Gi meg et tegn på dine drømmer - Helge Borglund
TTITLE8=Galoppiggen - Country Snakes
TTITLE9=Hei min kjære - Gro Anita Schønn/Helge Borglund
TTITLE10=Countryfest medley - diverse artister
EXTD=
EXTT0=
EXTT1=
EXTT2=
EXTT3=
EXTT4=
EXTT5=
EXTT6=
EXTT7=
EXTT8=
EXTT9=
EXTT10=
PLAYORDER=
